<svg width="701" height="617" viewBox="0 0 701 617" fill="none" xmlns="http://www.w3.org/2000/svg">
<g clip-path="url(#clip0_1_2)">
<path d="M0 616.5C18.0442 584.917 17.9272 585.486 33.2735 558L65.7735 590.5L179.774 377L218.274 448.5L342.273 143.5L277.273 161.5L388.273 8H420.273H700.273V616.5H0Z" fill="white"/>
<path d="M425 197L393.063 157.58" stroke="#833AB4" stroke-width="5"/>
<path d="M424.499 7V195" stroke="#833AB4" stroke-width="5"/>
<path d="M296.5 617.818C318.762 616.205 335 615 335 615C335 615 431.533 606.145 454.5 602C484.913 596.511 528.925 589.465 558.5 580.5C581.093 573.651 592.238 570.76 613.5 560.5C632.412 551.374 655.171 538.726 668.5 522.5C691.5 494.5 700.5 464 700.5 464V540.909V617.818H492H296.5Z" fill="#E7E7E7"/>
</g>
<defs>
<clipPath id="clip0_1_2">
<rect width="701" height="617" fill="white"/>
</clipPath>
</defs>
</svg>
